<?xml version="1.0" standalone="no"?>
<!DOCTYPE svg PUBLIC "-//W3C//DTD SVG 20010904//EN"
 "http://www.w3.org/TR/2001/REC-SVG-20010904/DTD/svg10.dtd">
<svg version="1.0" xmlns="http://www.w3.org/2000/svg"
 width="260.000000pt" height="260.000000pt" viewBox="0 0 260.000000 260.000000"
 preserveAspectRatio="xMidYMid meet">
<metadata>
Created by potrace 1.11, written by Peter Selinger 2001-2013
</metadata>
<g transform="translate(0.000000,260.000000) scale(0.100000,-0.100000)"
fill="#000000" stroke="none">
<path d="M306 2288 c-3 -29 -7 -80 -9 -113 l-5 -60 120 4 c67 2 118 -1 115 -5
-12 -21 -28 -275 -52 -829 -14 -324 -29 -626 -35 -669 -17 -137 -62 -190 -171
-202 l-59 -7 0 -61 c0 -33 -3 -78 -6 -98 l-7 -38 346 0 345 0 6 63 c3 34 7 86
9 116 l4 53 -115 -4 -114 -4 6 53 c11 94 24 326 42 756 10 229 21 417 24 417
4 0 36 -44 72 -97 37 -54 275 -386 531 -738 l464 -640 126 -3 126 -3 5 33 c2
18 25 420 49 893 34 641 50 873 61 910 25 81 84 125 167 125 23 0 41 5 44 13
2 6 5 51 7 100 l3 87 -342 0 c-320 0 -343 -1 -344 -17 -1 -10 -4 -61 -8 -113
l-6 -95 119 3 c65 2 116 0 113 -5 -11 -18 -29 -262 -52 -737 -14 -275 -27
-502 -30 -504 -2 -2 -41 52 -87 121 -46 68 -285 399 -533 736 l-450 611 -237
0 -237 0 -5 -52z"/>
</g>
</svg>
